<svg id="Layer_1" data-name="Layer 1" xmlns="http://www.w3.org/2000/svg" viewBox="0 0 2080.55 1123.78"><defs><style>.cls-1{fill:#fbf39d;}.cls-2{fill:#ff3f9b;}.cls-3{fill:#3f3200;}.cls-4,.cls-5{fill:none;stroke:#000;stroke-miterlimit:10;}.cls-5{stroke-width:30px;}</style></defs><title>login-bg</title><path class="cls-1" d="M0,734c-1.88-39.44,41.74,19.37,137,19,94.69-.37,105-33.75,171-23,83.14,13.55,86.78,69.85,167,79,74.45,8.49,87.79-38.12,153-27,86.1,14.68,87.85,100.21,171,116,78.89,15,108.15-56.17,184-38,68.4,16.38,71.88,80.77,142,116,82.7,41.55,121-41.4,229-16,55.66,13.09,38.61,86.57,194,108,87,12,95.28,11.6,87,12-124,6-1635,0-1635,0C0,940,3,797,0,734Z" transform="translate(157.88 41.11)"/><polygon class="cls-2" points="1612.88 1121.59 1610.97 460.11 2078.1 940.38 1612.88 1121.59"/><polygon class="cls-2" points="639.75 40.73 569.16 698.44 157.47 169.88 639.75 40.73"/><polygon class="cls-2" points="2079.48 256.38 1696.88 323.11 1912.21 42.51 2079.48 256.38"/><polygon class="cls-2" points="2080.36 661.25 1730.47 489.59 2080.55 382.81 2080.36 661.25"/><polygon class="cls-2" points="168.89 977.14 397.98 708.5 427.57 1102.28 168.89 977.14"/><polygon class="cls-2" points="136.29 448 457.97 620.5 0 756.26 136.29 448"/><circle class="cls-3" cx="448.88" cy="117.11" r="9"/><circle class="cls-3" cx="474.88" cy="117.11" r="9"/><circle class="cls-3" cx="448.88" cy="145.11" r="9"/><circle class="cls-3" cx="474.88" cy="145.11" r="9"/><circle class="cls-3" cx="448.88" cy="173.11" r="9"/><circle class="cls-3" cx="474.88" cy="173.11" r="9"/><circle class="cls-3" cx="448.88" cy="201.11" r="9"/><circle class="cls-3" cx="474.88" cy="201.11" r="9"/><circle class="cls-3" cx="500.88" cy="117.11" r="9"/><circle class="cls-3" cx="526.88" cy="117.11" r="9"/><circle class="cls-3" cx="500.88" cy="145.11" r="9"/><circle class="cls-3" cx="526.88" cy="145.11" r="9"/><circle class="cls-3" cx="500.88" cy="173.11" r="9"/><circle class="cls-3" cx="526.88" cy="173.11" r="9"/><circle class="cls-3" cx="500.88" cy="201.11" r="9"/><circle class="cls-3" cx="526.88" cy="201.11" r="9"/><circle class="cls-3" cx="552.88" cy="118.11" r="9"/><circle class="cls-3" cx="578.88" cy="118.11" r="9"/><circle class="cls-3" cx="552.88" cy="146.11" r="9"/><circle class="cls-3" cx="578.88" cy="146.11" r="9"/><circle class="cls-3" cx="552.88" cy="174.11" r="9"/><circle class="cls-3" cx="578.88" cy="174.11" r="9"/><circle class="cls-3" cx="552.88" cy="202.11" r="9"/><circle class="cls-3" cx="578.88" cy="202.11" r="9"/><circle class="cls-3" cx="604.88" cy="118.11" r="9"/><circle class="cls-3" cx="630.88" cy="118.11" r="9"/><circle class="cls-3" cx="604.88" cy="146.11" r="9"/><circle class="cls-3" cx="630.88" cy="146.11" r="9"/><circle class="cls-3" cx="604.88" cy="174.11" r="9"/><circle class="cls-3" cx="630.88" cy="174.11" r="9"/><circle class="cls-3" cx="604.88" cy="202.11" r="9"/><circle class="cls-3" cx="630.88" cy="202.11" r="9"/><circle class="cls-3" cx="447.88" cy="230.11" r="9"/><circle class="cls-3" cx="473.88" cy="230.11" r="9"/><circle class="cls-3" cx="447.88" cy="258.11" r="9"/><circle class="cls-3" cx="473.88" cy="258.11" r="9"/><circle class="cls-3" cx="447.88" cy="286.11" r="9"/><circle class="cls-3" cx="473.88" cy="286.11" r="9"/><circle class="cls-3" cx="447.88" cy="314.11" r="9"/><circle class="cls-3" cx="473.88" cy="314.11" r="9"/><circle class="cls-3" cx="499.88" cy="230.11" r="9"/><circle class="cls-3" cx="525.88" cy="230.11" r="9"/><circle class="cls-3" cx="499.88" cy="258.11" r="9"/><circle class="cls-3" cx="525.88" cy="258.11" r="9"/><circle class="cls-3" cx="499.88" cy="286.11" r="9"/><circle class="cls-3" cx="525.88" cy="286.11" r="9"/><circle class="cls-3" cx="499.88" cy="314.11" r="9"/><circle class="cls-3" cx="525.88" cy="314.11" r="9"/><circle class="cls-3" cx="551.88" cy="231.11" r="9"/><circle class="cls-3" cx="577.88" cy="231.11" r="9"/><circle class="cls-3" cx="551.88" cy="259.11" r="9"/><circle class="cls-3" cx="577.88" cy="259.11" r="9"/><circle class="cls-3" cx="551.88" cy="287.11" r="9"/><circle class="cls-3" cx="577.88" cy="287.11" r="9"/><circle class="cls-3" cx="551.88" cy="315.11" r="9"/><circle class="cls-3" cx="577.88" cy="315.11" r="9"/><circle class="cls-3" cx="603.88" cy="231.11" r="9"/><circle class="cls-3" cx="629.88" cy="231.11" r="9"/><circle class="cls-3" cx="603.88" cy="259.11" r="9"/><circle class="cls-3" cx="629.88" cy="259.11" r="9"/><circle class="cls-3" cx="603.88" cy="287.11" r="9"/><circle class="cls-3" cx="629.88" cy="287.11" r="9"/><circle class="cls-3" cx="603.88" cy="315.11" r="9"/><circle class="cls-3" cx="629.88" cy="315.11" r="9"/><circle class="cls-3" cx="448.88" cy="341.11" r="9"/><circle class="cls-3" cx="474.88" cy="341.11" r="9"/><circle class="cls-3" cx="448.88" cy="369.11" r="9"/><circle class="cls-3" cx="474.88" cy="369.11" r="9"/><circle class="cls-3" cx="448.88" cy="397.11" r="9"/><circle class="cls-3" cx="474.88" cy="397.11" r="9"/><circle class="cls-3" cx="448.88" cy="425.11" r="9"/><circle class="cls-3" cx="474.88" cy="425.11" r="9"/><circle class="cls-3" cx="500.88" cy="341.11" r="9"/><circle class="cls-3" cx="526.88" cy="341.11" r="9"/><circle class="cls-3" cx="500.88" cy="369.11" r="9"/><circle class="cls-3" cx="526.88" cy="369.11" r="9"/><circle class="cls-3" cx="500.88" cy="397.11" r="9"/><circle class="cls-3" cx="526.88" cy="397.11" r="9"/><circle class="cls-3" cx="500.88" cy="425.11" r="9"/><circle class="cls-3" cx="526.88" cy="425.11" r="9"/><circle class="cls-3" cx="552.88" cy="342.11" r="9"/><circle class="cls-3" cx="578.88" cy="342.11" r="9"/><circle class="cls-3" cx="552.88" cy="370.11" r="9"/><circle class="cls-3" cx="578.88" cy="370.11" r="9"/><circle class="cls-3" cx="552.88" cy="398.11" r="9"/><circle class="cls-3" cx="578.88" cy="398.11" r="9"/><circle class="cls-3" cx="552.88" cy="426.11" r="9"/><circle class="cls-3" cx="578.88" cy="426.11" r="9"/><circle class="cls-3" cx="604.88" cy="342.11" r="9"/><circle class="cls-3" cx="630.88" cy="342.11" r="9"/><circle class="cls-3" cx="604.88" cy="370.11" r="9"/><circle class="cls-3" cx="630.88" cy="370.11" r="9"/><circle class="cls-3" cx="604.88" cy="398.11" r="9"/><circle class="cls-3" cx="630.88" cy="398.11" r="9"/><circle class="cls-3" cx="604.88" cy="426.11" r="9"/><circle class="cls-3" cx="630.88" cy="426.11" r="9"/><circle class="cls-3" cx="447.88" cy="454.11" r="9"/><circle class="cls-3" cx="473.88" cy="454.11" r="9"/><circle class="cls-3" cx="447.88" cy="482.11" r="9"/><circle class="cls-3" cx="473.88" cy="482.11" r="9"/><circle class="cls-3" cx="447.88" cy="510.11" r="9"/><circle class="cls-3" cx="473.88" cy="510.11" r="9"/><circle class="cls-3" cx="447.88" cy="538.11" r="9"/><circle class="cls-3" cx="473.88" cy="538.11" r="9"/><circle class="cls-3" cx="499.88" cy="454.11" r="9"/><circle class="cls-3" cx="525.88" cy="454.11" r="9"/><circle class="cls-3" cx="499.88" cy="482.11" r="9"/><circle class="cls-3" cx="525.88" cy="482.11" r="9"/><circle class="cls-3" cx="499.88" cy="510.11" r="9"/><circle class="cls-3" cx="525.88" cy="510.11" r="9"/><circle class="cls-3" cx="499.88" cy="538.11" r="9"/><circle class="cls-3" cx="525.88" cy="538.11" r="9"/><circle class="cls-3" cx="551.88" cy="455.11" r="9"/><circle class="cls-3" cx="577.88" cy="455.11" r="9"/><circle class="cls-3" cx="551.88" cy="483.11" r="9"/><circle class="cls-3" cx="577.88" cy="483.11" r="9"/><circle class="cls-3" cx="551.88" cy="511.11" r="9"/><circle class="cls-3" cx="577.88" cy="511.11" r="9"/><circle class="cls-3" cx="551.88" cy="539.11" r="9"/><circle class="cls-3" cx="577.88" cy="539.11" r="9"/><circle class="cls-3" cx="603.88" cy="455.11" r="9"/><circle class="cls-3" cx="629.88" cy="455.11" r="9"/><circle class="cls-3" cx="603.88" cy="483.11" r="9"/><circle class="cls-3" cx="629.88" cy="483.11" r="9"/><circle class="cls-3" cx="603.88" cy="511.11" r="9"/><circle class="cls-3" cx="629.88" cy="511.11" r="9"/><circle class="cls-3" cx="603.88" cy="539.11" r="9"/><circle class="cls-3" cx="629.88" cy="539.11" r="9"/><circle class="cls-3" cx="447.88" cy="564.11" r="9"/><circle class="cls-3" cx="473.88" cy="564.11" r="9"/><circle class="cls-3" cx="447.88" cy="592.11" r="9"/><circle class="cls-3" cx="473.88" cy="592.11" r="9"/><circle class="cls-3" cx="447.88" cy="620.11" r="9"/><circle class="cls-3" cx="473.88" cy="620.11" r="9"/><circle class="cls-3" cx="447.88" cy="648.11" r="9"/><circle class="cls-3" cx="473.88" cy="648.11" r="9"/><circle class="cls-3" cx="499.88" cy="564.11" r="9"/><circle class="cls-3" cx="525.88" cy="564.11" r="9"/><circle class="cls-3" cx="499.88" cy="592.11" r="9"/><circle class="cls-3" cx="525.88" cy="592.11" r="9"/><circle class="cls-3" cx="499.88" cy="620.11" r="9"/><circle class="cls-3" cx="525.88" cy="620.11" r="9"/><circle class="cls-3" cx="499.88" cy="648.11" r="9"/><circle class="cls-3" cx="525.88" cy="648.11" r="9"/><circle class="cls-3" cx="551.88" cy="565.11" r="9"/><circle class="cls-3" cx="577.88" cy="565.11" r="9"/><circle class="cls-3" cx="551.88" cy="593.11" r="9"/><circle class="cls-3" cx="577.88" cy="593.11" r="9"/><circle class="cls-3" cx="551.88" cy="621.11" r="9"/><circle class="cls-3" cx="577.88" cy="621.11" r="9"/><circle class="cls-3" cx="551.88" cy="649.11" r="9"/><circle class="cls-3" cx="577.88" cy="649.11" r="9"/><circle class="cls-3" cx="603.88" cy="565.11" r="9"/><circle class="cls-3" cx="629.88" cy="565.11" r="9"/><circle class="cls-3" cx="603.88" cy="593.11" r="9"/><circle class="cls-3" cx="629.88" cy="593.11" r="9"/><circle class="cls-3" cx="603.88" cy="621.11" r="9"/><circle class="cls-3" cx="629.88" cy="621.11" r="9"/><circle class="cls-3" cx="603.88" cy="649.11" r="9"/><circle class="cls-3" cx="629.88" cy="649.11" r="9"/><circle class="cls-3" cx="446.88" cy="677.11" r="9"/><circle class="cls-3" cx="472.88" cy="677.11" r="9"/><circle class="cls-3" cx="446.88" cy="705.11" r="9"/><circle class="cls-3" cx="472.88" cy="705.11" r="9"/><circle class="cls-3" cx="446.88" cy="733.11" r="9"/><circle class="cls-3" cx="472.88" cy="733.11" r="9"/><circle class="cls-3" cx="446.88" cy="761.11" r="9"/><circle class="cls-3" cx="472.88" cy="761.11" r="9"/><circle class="cls-3" cx="498.88" cy="677.11" r="9"/><circle class="cls-3" cx="524.88" cy="677.11" r="9"/><circle class="cls-3" cx="498.88" cy="705.11" r="9"/><circle class="cls-3" cx="524.88" cy="705.11" r="9"/><circle class="cls-3" cx="498.88" cy="733.11" r="9"/><circle class="cls-3" cx="524.88" cy="733.11" r="9"/><circle class="cls-3" cx="498.88" cy="761.11" r="9"/><circle class="cls-3" cx="524.88" cy="761.11" r="9"/><circle class="cls-3" cx="550.88" cy="678.11" r="9"/><circle class="cls-3" cx="576.88" cy="678.11" r="9"/><circle class="cls-3" cx="550.88" cy="706.11" r="9"/><circle class="cls-3" cx="576.88" cy="706.11" r="9"/><circle class="cls-3" cx="550.88" cy="734.11" r="9"/><circle class="cls-3" cx="576.88" cy="734.11" r="9"/><circle class="cls-3" cx="550.88" cy="762.11" r="9"/><circle class="cls-3" cx="576.88" cy="762.11" r="9"/><circle class="cls-3" cx="602.88" cy="678.11" r="9"/><circle class="cls-3" cx="628.88" cy="678.11" r="9"/><circle class="cls-3" cx="602.88" cy="706.11" r="9"/><circle class="cls-3" cx="628.88" cy="706.11" r="9"/><circle class="cls-3" cx="602.88" cy="734.11" r="9"/><circle class="cls-3" cx="628.88" cy="734.11" r="9"/><circle class="cls-3" cx="602.88" cy="762.11" r="9"/><circle class="cls-3" cx="628.88" cy="762.11" r="9"/><circle class="cls-3" cx="1386.88" cy="291.11" r="9"/><circle class="cls-3" cx="1386.88" cy="265.11" r="9"/><circle class="cls-3" cx="1414.88" cy="291.11" r="9"/><circle class="cls-3" cx="1414.88" cy="265.11" r="9"/><circle class="cls-3" cx="1442.88" cy="291.11" r="9"/><circle class="cls-3" cx="1442.88" cy="265.11" r="9"/><circle class="cls-3" cx="1470.88" cy="291.11" r="9"/><circle class="cls-3" cx="1470.88" cy="265.11" r="9"/><circle class="cls-3" cx="1386.88" cy="239.11" r="9"/><circle class="cls-3" cx="1386.88" cy="213.11" r="9"/><circle class="cls-3" cx="1414.88" cy="239.11" r="9"/><circle class="cls-3" cx="1414.88" cy="213.11" r="9"/><circle class="cls-3" cx="1442.88" cy="239.11" r="9"/><circle class="cls-3" cx="1442.88" cy="213.11" r="9"/><circle class="cls-3" cx="1470.88" cy="239.11" r="9"/><circle class="cls-3" cx="1470.88" cy="213.11" r="9"/><circle class="cls-3" cx="1387.88" cy="187.11" r="9"/><circle class="cls-3" cx="1387.88" cy="161.11" r="9"/><circle class="cls-3" cx="1415.88" cy="187.11" r="9"/><circle class="cls-3" cx="1415.88" cy="161.11" r="9"/><circle class="cls-3" cx="1443.88" cy="187.11" r="9"/><circle class="cls-3" cx="1443.88" cy="161.11" r="9"/><circle class="cls-3" cx="1471.88" cy="187.11" r="9"/><circle class="cls-3" cx="1471.88" cy="161.11" r="9"/><circle class="cls-3" cx="1387.88" cy="135.11" r="9"/><circle class="cls-3" cx="1387.88" cy="109.11" r="9"/><circle class="cls-3" cx="1415.88" cy="135.11" r="9"/><circle class="cls-3" cx="1415.88" cy="109.11" r="9"/><circle class="cls-3" cx="1443.88" cy="135.11" r="9"/><circle class="cls-3" cx="1443.88" cy="109.11" r="9"/><circle class="cls-3" cx="1471.88" cy="135.11" r="9"/><circle class="cls-3" cx="1471.88" cy="109.11" r="9"/><circle class="cls-3" cx="1499.88" cy="292.11" r="9"/><circle class="cls-3" cx="1499.88" cy="266.11" r="9"/><circle class="cls-3" cx="1527.88" cy="292.11" r="9"/><circle class="cls-3" cx="1527.88" cy="266.11" r="9"/><circle class="cls-3" cx="1555.88" cy="292.11" r="9"/><circle class="cls-3" cx="1555.88" cy="266.11" r="9"/><circle class="cls-3" cx="1583.88" cy="292.11" r="9"/><circle class="cls-3" cx="1583.88" cy="266.11" r="9"/><circle class="cls-3" cx="1499.88" cy="240.11" r="9"/><circle class="cls-3" cx="1499.88" cy="214.11" r="9"/><circle class="cls-3" cx="1527.88" cy="240.11" r="9"/><circle class="cls-3" cx="1527.88" cy="214.11" r="9"/><circle class="cls-3" cx="1555.88" cy="240.11" r="9"/><circle class="cls-3" cx="1555.88" cy="214.11" r="9"/><circle class="cls-3" cx="1583.88" cy="240.11" r="9"/><circle class="cls-3" cx="1583.88" cy="214.11" r="9"/><circle class="cls-3" cx="1500.88" cy="188.11" r="9"/><circle class="cls-3" cx="1500.88" cy="162.11" r="9"/><circle class="cls-3" cx="1528.88" cy="188.11" r="9"/><circle class="cls-3" cx="1528.88" cy="162.11" r="9"/><circle class="cls-3" cx="1556.88" cy="188.11" r="9"/><circle class="cls-3" cx="1556.88" cy="162.11" r="9"/><circle class="cls-3" cx="1584.88" cy="188.11" r="9"/><circle class="cls-3" cx="1584.88" cy="162.11" r="9"/><circle class="cls-3" cx="1500.88" cy="136.11" r="9"/><circle class="cls-3" cx="1500.88" cy="110.11" r="9"/><circle class="cls-3" cx="1528.88" cy="136.11" r="9"/><circle class="cls-3" cx="1528.88" cy="110.11" r="9"/><circle class="cls-3" cx="1556.88" cy="136.11" r="9"/><circle class="cls-3" cx="1556.88" cy="110.11" r="9"/><circle class="cls-3" cx="1584.88" cy="136.11" r="9"/><circle class="cls-3" cx="1584.88" cy="110.11" r="9"/><circle class="cls-3" cx="1610.88" cy="291.11" r="9"/><circle class="cls-3" cx="1610.88" cy="265.11" r="9"/><circle class="cls-3" cx="1638.88" cy="291.11" r="9"/><circle class="cls-3" cx="1638.88" cy="265.11" r="9"/><circle class="cls-3" cx="1666.88" cy="291.11" r="9"/><circle class="cls-3" cx="1666.88" cy="265.11" r="9"/><circle class="cls-3" cx="1694.88" cy="291.11" r="9"/><circle class="cls-3" cx="1694.88" cy="265.11" r="9"/><circle class="cls-3" cx="1610.88" cy="239.11" r="9"/><circle class="cls-3" cx="1610.88" cy="213.11" r="9"/><circle class="cls-3" cx="1638.88" cy="239.11" r="9"/><circle class="cls-3" cx="1638.88" cy="213.11" r="9"/><circle class="cls-3" cx="1666.88" cy="239.11" r="9"/><circle class="cls-3" cx="1666.88" cy="213.11" r="9"/><circle class="cls-3" cx="1694.88" cy="239.11" r="9"/><circle class="cls-3" cx="1694.88" cy="213.11" r="9"/><circle class="cls-3" cx="1611.88" cy="187.11" r="9"/><circle class="cls-3" cx="1611.88" cy="161.11" r="9"/><circle class="cls-3" cx="1639.88" cy="187.11" r="9"/><circle class="cls-3" cx="1639.88" cy="161.11" r="9"/><circle class="cls-3" cx="1667.88" cy="187.11" r="9"/><circle class="cls-3" cx="1667.88" cy="161.11" r="9"/><circle class="cls-3" cx="1695.88" cy="187.11" r="9"/><circle class="cls-3" cx="1695.88" cy="161.11" r="9"/><circle class="cls-3" cx="1611.88" cy="135.11" r="9"/><circle class="cls-3" cx="1611.88" cy="109.11" r="9"/><circle class="cls-3" cx="1639.88" cy="135.11" r="9"/><circle class="cls-3" cx="1639.88" cy="109.11" r="9"/><circle class="cls-3" cx="1667.88" cy="135.11" r="9"/><circle class="cls-3" cx="1667.88" cy="109.11" r="9"/><circle class="cls-3" cx="1695.88" cy="135.11" r="9"/><circle class="cls-3" cx="1695.88" cy="109.11" r="9"/><circle class="cls-3" cx="1723.88" cy="292.11" r="9"/><circle class="cls-3" cx="1723.88" cy="266.11" r="9"/><circle class="cls-3" cx="1751.88" cy="292.11" r="9"/><circle class="cls-3" cx="1751.88" cy="266.11" r="9"/><circle class="cls-3" cx="1779.88" cy="292.11" r="9"/><circle class="cls-3" cx="1779.88" cy="266.11" r="9"/><circle class="cls-3" cx="1807.88" cy="292.11" r="9"/><circle class="cls-3" cx="1807.88" cy="266.11" r="9"/><circle class="cls-3" cx="1723.88" cy="240.11" r="9"/><circle class="cls-3" cx="1723.88" cy="214.11" r="9"/><circle class="cls-3" cx="1751.88" cy="240.11" r="9"/><circle class="cls-3" cx="1751.88" cy="214.11" r="9"/><circle class="cls-3" cx="1779.88" cy="240.11" r="9"/><circle class="cls-3" cx="1779.88" cy="214.11" r="9"/><circle class="cls-3" cx="1807.88" cy="240.11" r="9"/><circle class="cls-3" cx="1807.88" cy="214.11" r="9"/><circle class="cls-3" cx="1724.88" cy="188.11" r="9"/><circle class="cls-3" cx="1724.88" cy="162.11" r="9"/><circle class="cls-3" cx="1752.88" cy="188.11" r="9"/><circle class="cls-3" cx="1752.88" cy="162.11" r="9"/><circle class="cls-3" cx="1780.88" cy="188.11" r="9"/><circle class="cls-3" cx="1780.88" cy="162.11" r="9"/><circle class="cls-3" cx="1808.88" cy="188.11" r="9"/><circle class="cls-3" cx="1808.88" cy="162.11" r="9"/><circle class="cls-3" cx="1724.88" cy="136.11" r="9"/><circle class="cls-3" cx="1724.88" cy="110.11" r="9"/><circle class="cls-3" cx="1752.88" cy="136.11" r="9"/><circle class="cls-3" cx="1752.88" cy="110.11" r="9"/><circle class="cls-3" cx="1780.88" cy="136.11" r="9"/><circle class="cls-3" cx="1780.88" cy="110.11" r="9"/><circle class="cls-3" cx="1808.88" cy="136.11" r="9"/><circle class="cls-3" cx="1808.88" cy="110.11" r="9"/><circle class="cls-3" cx="1833.88" cy="292.11" r="9"/><circle class="cls-3" cx="1833.88" cy="266.11" r="9"/><circle class="cls-3" cx="1861.88" cy="292.11" r="9"/><circle class="cls-3" cx="1861.88" cy="266.11" r="9"/><circle class="cls-3" cx="1889.88" cy="292.11" r="9"/><circle class="cls-3" cx="1889.88" cy="266.11" r="9"/><circle class="cls-3" cx="1917.88" cy="292.11" r="9"/><circle class="cls-3" cx="1917.88" cy="266.11" r="9"/><circle class="cls-3" cx="1833.88" cy="240.11" r="9"/><circle class="cls-3" cx="1833.88" cy="214.11" r="9"/><circle class="cls-3" cx="1861.88" cy="240.11" r="9"/><circle class="cls-3" cx="1861.88" cy="214.11" r="9"/><circle class="cls-3" cx="1889.88" cy="240.11" r="9"/><circle class="cls-3" cx="1889.88" cy="214.11" r="9"/><circle class="cls-3" cx="1917.88" cy="240.11" r="9"/><circle class="cls-3" cx="1917.88" cy="214.11" r="9"/><circle class="cls-3" cx="1834.88" cy="188.11" r="9"/><circle class="cls-3" cx="1834.88" cy="162.11" r="9"/><circle class="cls-3" cx="1862.88" cy="188.11" r="9"/><circle class="cls-3" cx="1862.88" cy="162.11" r="9"/><circle class="cls-3" cx="1890.88" cy="188.11" r="9"/><circle class="cls-3" cx="1890.88" cy="162.11" r="9"/><circle class="cls-3" cx="1918.88" cy="188.11" r="9"/><circle class="cls-3" cx="1918.88" cy="162.11" r="9"/><circle class="cls-3" cx="1834.88" cy="136.11" r="9"/><circle class="cls-3" cx="1834.88" cy="110.11" r="9"/><circle class="cls-3" cx="1862.88" cy="136.11" r="9"/><circle class="cls-3" cx="1862.88" cy="110.11" r="9"/><circle class="cls-3" cx="1890.88" cy="136.11" r="9"/><circle class="cls-3" cx="1890.88" cy="110.11" r="9"/><circle class="cls-3" cx="1918.88" cy="136.11" r="9"/><circle class="cls-3" cx="1918.88" cy="110.11" r="9"/><circle class="cls-3" cx="1946.88" cy="293.11" r="9"/><circle class="cls-3" cx="1946.88" cy="267.11" r="9"/><circle class="cls-3" cx="1974.88" cy="293.11" r="9"/><circle class="cls-3" cx="1974.88" cy="267.11" r="9"/><circle class="cls-3" cx="2002.88" cy="293.11" r="9"/><circle class="cls-3" cx="2002.88" cy="267.11" r="9"/><circle class="cls-3" cx="2030.88" cy="293.11" r="9"/><circle class="cls-3" cx="2030.88" cy="267.11" r="9"/><circle class="cls-3" cx="1946.88" cy="241.11" r="9"/><circle class="cls-3" cx="1946.88" cy="215.11" r="9"/><circle class="cls-3" cx="1974.88" cy="241.11" r="9"/><circle class="cls-3" cx="1974.88" cy="215.11" r="9"/><circle class="cls-3" cx="2002.88" cy="241.11" r="9"/><circle class="cls-3" cx="2002.88" cy="215.11" r="9"/><circle class="cls-3" cx="2030.88" cy="241.11" r="9"/><circle class="cls-3" cx="2030.88" cy="215.11" r="9"/><circle class="cls-3" cx="1947.88" cy="189.11" r="9"/><circle class="cls-3" cx="1947.88" cy="163.11" r="9"/><circle class="cls-3" cx="1975.88" cy="189.11" r="9"/><circle class="cls-3" cx="1975.88" cy="163.11" r="9"/><circle class="cls-3" cx="2003.88" cy="189.11" r="9"/><circle class="cls-3" cx="2003.88" cy="163.11" r="9"/><circle class="cls-3" cx="2031.88" cy="189.11" r="9"/><circle class="cls-3" cx="2031.88" cy="163.11" r="9"/><circle class="cls-3" cx="1947.88" cy="137.11" r="9"/><circle class="cls-3" cx="1947.88" cy="111.11" r="9"/><circle class="cls-3" cx="1975.88" cy="137.11" r="9"/><circle class="cls-3" cx="1975.88" cy="111.11" r="9"/><circle class="cls-3" cx="2003.88" cy="137.11" r="9"/><circle class="cls-3" cx="2003.88" cy="111.11" r="9"/><circle class="cls-3" cx="2031.88" cy="137.11" r="9"/><circle class="cls-3" cx="2031.88" cy="111.11" r="9"/><line class="cls-4" x1="1460.38" y1="4.61" x2="1461.38" y2="4.61"/><path class="cls-5" d="M48.85,678.5c12.8-72.5,58.1-64.5,70.9-137s-32.5-80.49-19.7-153,58.1-64.5,70.9-137-32.5-80.5-19.7-153,58.1-64.51,70.9-137" transform="translate(157.88 41.11)"/><path class="cls-5" d="M1525.87,1033.87c33.9-61.3,74.16-39,108.06-100.34s-6.36-83.56,27.54-144.86,74.15-39,108-100.33-6.35-83.57,27.55-144.87,74.16-39,108.06-100.34" transform="translate(157.88 41.11)"/><path class="cls-5" d="M1252.69,749.57c-19.19-76.79,25.44-87.94,6.26-164.73s-63.81-65.64-83-142.44,25.44-87.94,6.26-164.73-63.81-65.65-83-142.44,25.45-87.95,6.26-164.74" transform="translate(157.88 41.11)"/><path class="cls-5" d="M1188,762.07c-19.13-76.74,25.5-87.87,6.37-164.62s-63.77-65.62-82.91-142.37,25.5-87.88,6.36-164.63-63.77-65.63-82.9-142.38,25.49-87.88,6.36-164.63" transform="translate(157.88 41.11)"/></svg>